<svg width="49" height="49" viewBox="0 0 49 49" fill="none" xmlns="http://www.w3.org/2000/svg">
<path d="M24.5 7.65625C15.1977 7.65625 7.65625 15.1977 7.65625 24.5C7.65625 33.8023 15.1977 41.3438 24.5 41.3438C33.8023 41.3438 41.3438 33.8023 41.3438 24.5C41.3438 15.1977 33.8023 7.65625 24.5 7.65625ZM24.5 10.7188C32.1111 10.7188 38.2812 16.8889 38.2812 24.5C38.2812 30.8078 34.0387 36.114 28.2549 37.7504C28.1838 37.604 28.1351 37.4436 28.1397 37.2614C28.1634 36.3358 28.1397 34.1756 28.1397 33.3824C28.1397 32.0212 27.2784 31.0557 27.2784 31.0557C27.2784 31.0557 34.0344 31.1319 34.0344 23.9228C34.0344 21.1413 32.5809 19.6924 32.5809 19.6924C32.5809 19.6924 33.3445 16.723 32.3163 15.4635C31.164 15.3387 29.1002 16.5642 28.219 17.1368C28.219 17.1368 26.8229 16.5641 24.5 16.5641C22.1771 16.5641 20.781 17.1368 20.781 17.1368C19.8998 16.5642 17.836 15.3395 16.6837 15.4635C15.6563 16.723 16.4191 19.6924 16.4191 19.6924C16.4191 19.6924 14.9656 21.1398 14.9656 23.9213C14.9656 31.1304 21.7216 31.0557 21.7216 31.0557C21.7216 31.0557 20.9523 31.9314 20.8752 33.1866C20.4238 33.3458 19.8084 33.5335 19.2214 33.5335C17.805 33.5335 16.7289 32.1577 16.3338 31.5207C15.9449 30.8921 15.1475 30.3648 14.4033 30.3648C13.9133 30.3648 13.6736 30.611 13.6736 30.8912C13.6736 31.1714 14.3613 31.3665 14.8145 31.8856C15.77 32.9804 15.7523 35.4431 19.1571 35.4431C19.5596 35.4431 20.283 35.3503 20.8603 35.2711C20.8571 36.044 20.8481 36.7853 20.8603 37.2599C20.8648 37.4427 20.8151 37.6036 20.7437 37.7504C14.9605 36.1136 10.7188 30.8073 10.7188 24.5C10.7188 16.8889 16.8889 10.7188 24.5 10.7188Z" fill="white"/>
</svg>
