<svg width="37" height="37" viewBox="0 0 37 37" fill="none" xmlns="http://www.w3.org/2000/svg">
<path d="M18.4794 36.7552C18.3356 36.7552 18.2028 36.6793 18.1297 36.5558L16.216 33.3181C12.4776 26.9983 8.61199 20.4628 7.3676 17.9651C6.54193 16.2719 6.12402 14.4536 6.12402 12.5582C6.12402 5.74574 11.6665 0.203247 18.4794 0.203247C25.2919 0.203247 30.8348 5.74574 30.8348 12.5586C30.8348 14.4528 30.4173 16.2711 29.5936 17.9622C29.5888 17.9716 29.5843 17.9805 29.579 17.9894C28.322 20.5046 24.4694 27.0182 20.7428 33.3181L18.8291 36.5558C18.756 36.6793 18.6232 36.7552 18.4794 36.7552ZM18.4794 1.01551C12.1145 1.01551 6.93629 6.19371 6.93629 12.5586C6.93629 14.329 7.32618 16.0278 8.09539 17.6069C9.32476 20.0733 13.181 26.5929 16.9105 32.8973L18.4794 35.551L20.0442 32.9042C23.7754 26.5966 27.6332 20.0741 28.8642 17.6028C28.8679 17.5959 28.8715 17.5894 28.8748 17.5829C29.6363 16.0095 30.0225 14.3192 30.0225 12.5582C30.0225 6.19371 24.8443 1.01551 18.4794 1.01551Z" fill="white"/>
<path d="M18.4791 17.4379C15.5229 17.4379 13.1182 15.0328 13.1182 12.0765C13.1182 9.12029 15.5229 6.71558 18.4791 6.71558C21.435 6.71558 23.8401 9.12029 23.8401 12.0765C23.8401 15.0328 21.435 17.4379 18.4791 17.4379ZM18.4791 7.52784C15.9708 7.52784 13.9304 9.56825 13.9304 12.0765C13.9304 14.5848 15.9708 16.6256 18.4791 16.6256C20.9874 16.6256 23.0278 14.5852 23.0278 12.0765C23.0278 9.56825 20.9874 7.52784 18.4791 7.52784Z" fill="white"/>
</svg>
