<svg width="35" height="35" viewBox="0 0 35 35" fill="none" xmlns="http://www.w3.org/2000/svg">
<g clip-path="url(#clip0_153_81)">
<path d="M35.0438 7.30623C33.7504 7.88044 32.3641 8.26599 30.9066 8.44099C32.3941 7.54958 33.5371 6.13865 34.073 4.45974C32.684 5.28279 31.1391 5.88162 29.5012 6.20427C28.1887 4.80427 26.3184 3.93201 24.2484 3.93201C20.2727 3.93201 17.0488 7.1531 17.0488 11.1289C17.0488 11.6922 17.1145 12.2418 17.2375 12.7695C11.2547 12.4687 5.95273 9.6031 2.40078 5.24724C1.78008 6.31365 1.42734 7.54958 1.42734 8.86755C1.42734 11.364 2.69609 13.5679 4.6293 14.8613C3.44805 14.823 2.33789 14.4976 1.36719 13.959C1.36719 13.989 1.36719 14.0191 1.36719 14.0492C1.36719 17.5383 3.85 20.4449 7.13945 21.1094C6.53789 21.2734 5.90078 21.3609 5.24453 21.3609C4.77969 21.3609 4.32852 21.3172 3.88828 21.2297C4.80703 24.0871 7.46484 26.1734 10.6121 26.2308C8.15117 28.1613 5.04766 29.3097 1.67344 29.3097C1.09102 29.3097 0.519532 29.2769 -0.0410156 29.2086C3.1418 31.2539 6.92617 32.4433 10.9922 32.4433C24.232 32.4433 31.4727 21.4758 31.4727 11.9656C31.4727 11.6539 31.4645 11.3394 31.4535 11.0332C32.859 10.0187 34.0785 8.74998 35.0438 7.30623Z" fill="white"/>
</g>
<defs>
<clipPath id="clip0_153_81">
<rect width="35" height="35" fill="white"/>
</clipPath>
</defs>
</svg>
